<svg xmlns="http://www.w3.org/2000/svg" viewBox="0 0 23 23"><path d="M1 1h7v7h-7zM9 1h2v1h1v2h1v2h-1v-1h-3v-1h1v-1h-1zM12 1h2v1h-2zM15 1h7v7h-7zM2 2v5h5v-5zM16 2v5h5v-5zM3 3h3v3h-3zM13 3h1v1h-1zM17 3h3v3h-3zM10 6h1v1h-1zM9 7h1v2h-1zM11 7h1v1h-1zM13 7h1v1h-1zM12 8h1v2h-3v-1h2zM1 9h1v2h-1zM3 9h2v2h3v1h-5v-1h1v-1h-1zM6 9h3v2h-1v-1h-2zM15 9h1v1h-1zM18 9h1v1h-1zM20 9h2v4h-1v-1h-1v-1h1v-1h-1zM16 10h2v1h-2zM19 10h1v1h-1zM9 11h1v1h-1zM11 11h1v1h-1zM15 11h1v1h-1zM2 12h1v1h-1zM8 12h1v1h-1zM10 12h1v1h-1zM12 12h2v3h-1v-2h-1zM16 12h3v3h-1v1h-1v2h-1v-3h1v-1h1v-1h-1v1h-1v1h-1v-2h1zM1 13h1v1h-1zM3 13h3v1h-3zM7 13h1v1h-1zM9 14h3v1h-1v2h-2zM1 15h7v7h-7zM12 15h1v1h2v3h1v1h1v1h-1v1h-2v-2h-1v2h-2v-1h1v-2h1v-1h1v-1h-1v1h-2v-1h1zM19 15h1v2h1v2h-1v-1h-2v-1h1zM2 16v5h5v-5zM21 16h1v1h-1zM3 17h3v3h-3zM9 18h2v2h-2zM19 19h1v1h-1zM21 20h1v1h-1zM9 21h1v1h-1zM17 21h1v1h-1zM19 21h1v1h-1z"/></svg>