<svg xmlns="http://www.w3.org/2000/svg" viewBox="0 0 23 23"><path d="M1 1h7v7h-7zM11 1h1v1h2v1h-1v1h-1v-1h-1zM15 1h7v7h-7zM2 2v5h5v-5zM16 2v5h5v-5zM3 3h3v3h-3zM9 3h1v6h-1zM17 3h3v3h-3zM12 5h2v5h1v-1h5v1h2v1h-1v1h-1v1h-2v-2h-3v2h-1v-2h-1v-2h-1v-1h1v-2h-1zM11 6h1v2h-1zM1 9h1v1h-1zM3 9h5v1h-1v1h-1v-1h-3zM11 9h1v2h-2v-1h1zM2 10h1v1h-1zM8 10h1v3h1v-1h1v2h-1v1h-1v-1h-4v-1h-2v-2h1v1h3v1h1v-1h-1v-1h1zM12 11h1v1h-1zM21 12h1v3h-1v-1h-1v-1h1zM1 13h1v1h-1zM12 13h1v1h-1zM15 13h3v1h2v1h1v1h-1v1h-1v1h1v1h-3v1h-2v1h-1v1h-2v-1h-1v1h-2v-1h1v-1h-1v-4h1v2h1v1h3v-1h1v1h1v-1h-1v-1h1v-1h1v2h1v-3h-2v-1h-1zM11 14h1v2h-2v-1h1zM13 14h1v1h1v2h-1v-1h-1zM1 15h7v7h-7zM2 16v5h5v-5zM3 17h3v3h-3zM12 17h1v1h-1zM20 17h2v1h-2zM18 20h2v1h-2zM15 21h2v1h-2zM20 21h1v1h-1z"/></svg>