<svg xmlns="http://www.w3.org/2000/svg" viewBox="0 0 23 23"><path d="M1 1h7v7h-7zM12 1h1v2h-1zM15 1h7v7h-7zM2 2v5h5v-5zM10 2h1v1h-1zM16 2v5h5v-5zM3 3h3v3h-3zM9 3h1v1h1v-1h1v1h1v1h1v6h-1v-2h-1v-1h1v-2h-1v-1h-2v1h1v1h-1v1h1v4h-1v-1h-1v1h-2v1h-1v-1h-1v1h-1v-3h-1v-1h5v1h-2v1h2v-1h2v-1h-1zM17 3h3v3h-3zM11 7h1v1h-1zM1 9h1v1h-1zM15 9h5v1h2v1h-1v1h-1v-1h-1v-1h-1v1h-1v-1h-2zM2 10h1v1h-1zM1 11h1v1h-1zM12 11h1v1h-1zM14 11h2v1h-2zM2 12h1v1h-1zM18 12h2v1h-2zM3 13h1v1h-1zM7 13h4v2h-2v-1h-2zM12 13h1v1h-1zM15 13h1v1h-1zM13 14h1v2h-1zM16 14h3v2h1v1h-3v1h-2v-1h1v-1h2v-1h-2zM20 14h2v1h-1v1h-1zM1 15h7v7h-7zM11 15h1v1h-1zM2 16v5h5v-5zM9 16h1v1h1v1h2v1h1v1h1v1h-1v1h-1v-1h-1v1h-1v-1h-1v-1h2v-1h-2v1h-1zM14 16h1v1h-1zM3 17h3v3h-3zM13 17h1v1h-1zM20 17h2v1h-2zM17 18h3v1h-1v1h1v1h-3v-1h1v-1h-1zM15 19h1v1h-1zM9 21h1v1h-1zM15 21h1v1h-1zM20 21h1v1h-1z"/></svg>