<svg xmlns="http://www.w3.org/2000/svg" viewBox="0 0 23 23"><path d="M1 1h7v7h-7zM11 1h1v1h-1zM15 1h7v7h-7zM2 2v5h5v-5zM16 2v5h5v-5zM3 3h3v3h-3zM9 3h1v2h1v1h1v2h1v-2h-1v-1h2v6h-1v-2h-2v-2h-1v2h-1zM11 3h2v1h-1v1h-1zM17 3h3v3h-3zM1 9h1v1h-1zM3 9h5v1h-1v1h-1v-1h-3zM10 9h1v2h2v1h-1v1h1v1h3v2h1v2h1v-3h-1v-1h3v1h1v1h-1v1h-1v1h1v1h-3v1h-1v-3h-2v2h-1v-2h-1v-1h1v-1h-2v-1h-1v-1h-1v1h-2v-1h1v-1h2v-1h-1v-1h1zM15 9h5v1h2v1h-1v1h-1v1h-2v-2h-1v-1h-2zM2 10h1v1h3v1h1v1h-1v1h-2v-1h1v-1h-2v1h-2v-2h1zM7 11h1v1h-1zM15 11h1v1h-1zM21 12h1v3h-1v-1h-1v-1h1zM16 13h1v1h-1zM9 14h1v1h-1zM1 15h7v7h-7zM14 15v1h1v-1zM2 16v5h5v-5zM9 16h2v1h-1v1h1v2h1v1h-2v-1h-1zM3 17h3v3h-3zM11 17h1v1h-1zM21 17h1v1h-1zM12 19h1v1h-1zM14 19h1v1h-1zM18 20h2v1h-2zM9 21h1v1h-1zM12 21h1v1h-1zM14 21h1v1h-1zM16 21h1v1h-1zM20 21h1v1h-1z"/></svg>