<svg xmlns="http://www.w3.org/2000/svg" viewBox="0 0 23 23"><path d="M1 1h7v7h-7zM10 1h1v2h2v-2h1v3h-3v1h-1v4h-1v-6h1zM15 1h7v7h-7zM2 2v5h5v-5zM16 2v5h5v-5zM3 3h3v3h-3zM17 3h3v3h-3zM12 5h2v6h-1v-2h-2v-3h1v2h1v-2h-1zM1 9h1v3h-1zM3 9h5v1h-5zM10 9h1v1h-1zM15 9h5v1h1v1h-2v-1h-2v1h-1v-1h-1zM8 10h1v1h1v2h-1v-1h-2v-1h1zM11 10h1v1h1v1h-1v1h1v1h1v-1h1v1h1v1h1v1h-1v1h-2v2h-1v-2h-1v-1h1v-1h-1v-1h-1zM4 11h2v1h1v1h-4v-1h1zM14 11h1v1h-1zM17 11h2v1h-1v1h3v2h-1v-1h-1v1h-1v-1h-1v-1h-1v-1h1zM1 13h1v1h-1zM7 13h2v1h-2zM9 14h1v1h-1zM1 15h7v7h-7zM14 15v1h1v-1zM19 15h1v1h-1zM2 16v5h5v-5zM9 16h2v2h-1v2h-1zM21 16h1v1h-1zM3 17h3v3h-3zM16 17h1v2h-1zM18 17h1v1h-1zM12 19h1v1h-1zM14 19h1v1h-1zM17 19h1v3h-1v-1h-1v-1h1zM19 19h1v1h1v1h-1v1h-1zM10 20h1v1h-1zM9 21h1v1h-1zM11 21h2v1h-2zM14 21h1v1h-1z"/></svg>