<svg xmlns="http://www.w3.org/2000/svg" viewBox="0 0 23 23"><path d="M1 1h7v7h-7zM9 1h2v2h-1v1h-1zM15 1h7v7h-7zM2 2v5h5v-5zM13 2h1v2h-2v-1h1zM16 2v5h5v-5zM3 3h3v3h-3zM17 3h3v3h-3zM11 4h1v2h-3v-1h2zM13 5h1v4h1v1h-1v1h-1v-2h-2v1h1v1h-1v1h-1v1h-1v-1h-3v-2h-2v-1h6v-1h1v-1h1v1h1v-1h-1v-1h1zM9 7h1v1h-1zM1 9h1v1h-1zM17 9h1v1h1v2h-2zM19 9h3v1h-3zM2 10h1v1h-1zM7 10v1h1v-1zM9 10v1h1v-1zM15 10h1v2h-2v-1h1zM1 11h1v1h1v1h-2zM3 11h1v1h-1zM20 11h2v1h-2zM4 12h2v1h-1v1h-2v-1h1zM12 12h1v1h-1zM19 12h1v1h-1zM7 13h2v1h-2zM11 13h1v1h2v1h4v-1h2v-1h2v1h-1v2h-1v1h-1v1h-1v-1h-1v1h-2v-1h1v-1h-1v1h-1v2h-3v1h-1v-1h-1v-5h1v3h1v-1h2v-1h-2zM15 13h1v1h-1zM1 15h7v7h-7zM2 16v5h5v-5zM3 17h3v3h-3zM20 17h2v1h-2zM19 18h1v1h2v2h-3v1h-2v-3h1v1h1zM15 19h1v2h-2v-1h1zM9 21h4v1h-4z"/></svg>