<svg xmlns="http://www.w3.org/2000/svg" viewBox="0 0 23 23"><path d="M1 1h7v7h-7zM13 1h1v1h-1zM15 1h7v7h-7zM2 2v5h5v-5zM10 2h1v1h2v1h1v2h-1v-1h-1v1h1v1h-1v2h1v1h2v-1h5v1h-1v2h1v1h-1v1h-1v-4h-2v1h1v1h-1v1h-2v2h-1v-2h-1v-1h1v-1h-2v-5h-1v3h-1v-6h1zM16 2v5h5v-5zM3 3h3v3h-3zM17 3h3v3h-3zM13 7h1v1h-1zM1 9h1v1h1v1h-1v1h-1zM3 9h5v1h-3v1h-1v-1h-1zM21 10h1v1h-1zM5 11h1v1h1v1h-1v1h-1zM7 11h2v1h1v1h-1v1h-2v-1h1v-1h-1zM14 11v1h1v-1zM20 11h1v1h-1zM1 13h3v1h-3zM16 13h1v2h-1zM20 13h1v1h-1zM9 14h1v1h-1zM11 14h1v1h-1zM19 14h1v1h-1zM21 14h1v1h-1zM1 15h7v7h-7zM10 15h1v1h1v1h1v1h1v-1h1v1h1v1h1v1h-1v1h-2v1h-1v-1h-1v-1h1v-1h-1v-1h-1v-1h-1v3h-1v-4h1zM12 15h1v1h-1zM14 15h1v1h-1zM17 15h2v1h-1v2h-1v-1h-1v-1h1zM20 15h1v1h1v1h-2v1h-1v-2h1zM2 16v5h5v-5zM3 17h3v3h-3zM18 18h1v1h-1zM11 19h1v1h-1zM14 19v1h1v-1zM10 20h1v1h1v1h-3v-1h1zM18 20h1v1h-1zM16 21h1v1h-1zM19 21h2v1h-2z"/></svg>