<svg xmlns="http://www.w3.org/2000/svg" viewBox="0 0 23 23"><path d="M1 1h7v7h-7zM10 1h1v1h2v-1h1v2h-2v1h2v2h-1v-1h-2v1h2v1h-1v2h-1v-2h-1v2h-1v-6h1v1h1v-1h-1zM15 1h7v7h-7zM2 2v5h5v-5zM16 2v5h5v-5zM3 3h3v3h-3zM17 3h3v3h-3zM13 7h1v1h-1zM1 9h1v1h1v3h2v1h-3v-1h-1zM3 9h5v1h-3v1h-1v-1h-1zM10 9h1v1h-1zM12 9h1v1h2v-1h5v1h2v1h-1v1h1v3h-1v-1h-1v-1h-1v1h-1v-1h-1v1h-1v-1h-2v2h-1v-2h-1v-1h1v-1h-1zM8 10h1v1h-1zM17 10v2h2v-1h-1v-1zM5 11h3v1h-3zM9 11h3v1h-1v1h1v2h1v1h-2v-1h-2v-1h1v-2h-1zM14 11v1h1v-1zM8 12h1v1h-1zM6 13h2v1h-2zM17 14h1v1h-1zM19 14h1v1h-1zM1 15h7v7h-7zM14 15h1v1h-1zM20 15h1v1h1v1h-1v1h-1v-1h-2v-1h2zM2 16v5h5v-5zM9 16h2v1h-1v2h1v1h-2zM3 17h3v3h-3zM11 17h2v1h1v-1h1v1h1v2h1v2h-1v-1h-2v1h-1v-1h-2v-1h2v-1h-2zM16 17h1v1h-1zM17 18h1v1h-1zM19 18h1v3h-1v-1h-1v-1h1zM14 19v1h1v-1zM9 21h2v1h-2zM20 21h1v1h-1z"/></svg>