<svg xmlns="http://www.w3.org/2000/svg" viewBox="0 0 23 23"><path d="M1 1h7v7h-7zM9 1h1v1h1v2h-2zM11 1h3v2h-1v2h1v1h-2v3h-2v-1h1v-1h-1v-1h-1v-1h2v-1h1v-2h-1zM15 1h7v7h-7zM2 2v5h5v-5zM16 2v5h5v-5zM3 3h3v3h-3zM17 3h3v3h-3zM9 7h1v1h-1zM13 7h1v1h-1zM1 9h1v1h2v3h-2v-1h1v-1h-2zM4 9h6v1h1v1h1v-2h1v1h1v-1h1v2h-1v1h2v-2h1v-1h1v1h1v2h-1v-1h-1v1h1v1h2v1h2v1h-2v3h-1v-2h-1v-1h1v-1h-3v1h-3v-1h-1v-1h1v-1h-1v1h-1v-1h-1v-1h-1v-1h-2v1h-1v-1h-2zM19 9h3v3h-1v-2h-2zM7 11h2v1h-2zM5 12h1v1h-1zM1 13h1v1h-1zM4 13h1v1h-1zM6 13h4v1h1v2h1v2h-1v-1h-1v2h-1v-5h-3zM1 15h7v7h-7zM12 15h1v1h-1zM2 16v5h5v-5zM15 16h1v2h1v-1h1v2h1v2h-1v-1h-1v1h1v1h-2v-3h-1v1h-1v1h1v1h-2v-1h-1v1h-3v-1h1v-2h1v1h1v-1h1v-1h1v-1h1zM21 16h1v2h-1zM3 17h3v3h-3zM20 19h2v2h-1v-1h-1zM19 21h2v1h-2z"/></svg>