<svg xmlns="http://www.w3.org/2000/svg" viewBox="0 0 23 23"><path d="M1 1h7v7h-7zM9 1h3v1h-1v1h-2zM15 1h7v7h-7zM2 2v5h5v-5zM13 2h1v1h-1zM16 2v5h5v-5zM3 3h3v3h-3zM12 3h1v1h-1zM17 3h3v3h-3zM9 4h1v1h-1zM11 4h1v2h-1zM10 6h1v1h-1zM9 7h1v2h-1zM11 7h1v1h-1zM13 7h1v1h-1zM1 9h1v1h-1zM3 9h2v1h-1v2h1v2h-1v-1h-1zM6 9h3v1h-3zM11 9h1v3h-1zM15 9h1v1h-1zM18 9h1v1h1v-1h2v5h-2v-3h-2zM13 10h1v1h2v-1h1v1h1v1h-3v3h1v1h1v1h-1v1h-1v-1h-2v1h-1v1h1v1h1v2h-3v-1h1v-1h-1v-1h-1v1h-1v-2h1v-1h-1v-3h1v-1h3v1h-2v3h1v-1h2v-3h-1zM5 11h1v1h-1zM7 11h2v3h-3v-2h1v1h1v-1h-1zM1 12h1v1h-1zM18 12h1v1h-1zM17 13h1v1h-1zM1 15h7v7h-7zM17 15h2v1h1v1h1v-1h1v2h-1v1h-1v-1h-1v-1h-1v-1h-1zM2 16v5h5v-5zM3 17h3v3h-3zM14 18h1v2h-1zM18 18h1v1h-1zM16 19h1v1h1v1h-1v1h-1v-1h-1v-1h1zM10 20h1v1h-1zM21 20h1v1h-1zM9 21h1v1h-1zM19 21h1v1h-1z"/></svg>