<svg xmlns="http://www.w3.org/2000/svg" viewBox="0 0 23 23"><path d="M1 1h7v7h-7zM10 1h1v1h1v-1h1v2h-1v1h1v1h1v6h-1v-2h-1v-1h1v-2h-1v-1h-2v3h1v1h-2v-6h1zM15 1h7v7h-7zM2 2v5h5v-5zM16 2v5h5v-5zM3 3h3v3h-3zM13 3h1v1h-1zM17 3h3v3h-3zM11 6h1v2h-1zM1 9h1v2h-1zM3 9h5v1h-1v1h-1v-1h-1v1h-1v1h-1zM15 9h5v2h1v1h1v1h-4v1h-1v-1h-1v-1h1v-1h1v1h1v-1h-1v-1h-1v1h-1v-1h-1zM9 10h2v1h-2zM21 10h1v1h-1zM7 11h1v1h-1zM11 11h2v1h-1v1h-1zM14 11h1v1h-1zM1 12h1v2h-1zM5 12h1v2h-2v-1h1zM9 12h1v1h-1zM7 13h1v1h-1zM10 13h1v1h1v-1h1v1h1v-1h1v1h1v1h1v1h-1v1h-2v2h-1v-2h-1v-1h1v-1h-4v-1h1zM19 14h3v1h-1v1h-1v1h-2v-2h1zM1 15h7v7h-7zM14 15v1h1v-1zM2 16v5h5v-5zM9 16h1v1h1v1h-1v2h-1zM3 17h3v3h-3zM16 17h1v2h-1zM20 17h1v1h-1zM18 18h2v3h1v1h-2v-3h-1zM11 19h2v1h-1v1h1v1h-4v-1h1v-1h1zM14 19h1v1h-1zM17 19h1v3h-1v-1h-1v-1h1zM14 21h1v1h-1z"/></svg>