<svg xmlns="http://www.w3.org/2000/svg" viewBox="0 0 23 23"><path d="M1 1h7v7h-7zM12 1h1v1h-1zM15 1h7v7h-7zM2 2v5h5v-5zM9 2h1v1h-1zM11 2h1v1h-1zM13 2h1v1h-1zM16 2v5h5v-5zM3 3h3v3h-3zM12 3h1v1h1v5h-1v2h-3v-3h1v-1h1v1h1v-3h-3v-1h2zM17 3h3v3h-3zM9 5h1v1h-1zM9 7h1v1h-1zM1 9h1v1h1v2h-2zM3 9h1v1h-1zM5 9h1v1h1v1h-2v1h-1v-2h1zM7 9h1v1h-1zM17 9h1v2h3v-1h1v3h-1v1h1v2h-5v-1h-1v-1h1v-1h1v2h2v-3h-3v1h-1v-1h-1v1h-1v-1h-1v-1h1v-1h1v1h1v-1h1zM20 9h1v1h-1zM7 11h1v1h-1zM3 12h1v1h1v-1h1v1h5v1h-1v1h-1v-1h-8v-1h2zM11 12h2v1h-2zM13 13h1v1h1v1h-1v2h-3v1h1v1h1v-1h1v2h-3v-1h-1v-1h-1v-1h1v-1h3v-1h-2v-1h2zM1 15h7v7h-7zM15 15h1v1h-1zM2 16v5h5v-5zM16 16h1v1h-1zM3 17h3v3h-3zM14 17h1v1h-1zM17 17h2v1h-1v3h-1v-2h-1v-1h1zM20 17h1v2h-1zM9 19h1v1h-1zM21 19h1v1h-1zM10 20h1v2h-2v-1h1zM20 20h1v1h1v1h-2zM12 21h2v1h-2zM16 21h1v1h-1z"/></svg>