<svg xmlns="http://www.w3.org/2000/svg" viewBox="0 0 31 31"><path d="M1 1h7v7h-7zM9 1h3v4h-1v2h-1v-2h-1v-1h2v-2h-1v1h-1zM13 1h4v1h-2v1h-2zM19 1h3v1h-2v2h-1v-1h-1v1h-1v-2h2zM23 1h7v7h-7zM2 2v5h5v-5zM24 2v5h5v-5zM3 3h3v3h-3zM21 3h1v1h-1zM25 3h3v3h-3zM13 4h1v2h-1zM15 4h2v1h-1v1h-1zM18 4h1v1h-1zM17 5h1v1h2v-1h1v1h1v3h-1v-2h-1v1h-1v-1h-1v1h1v2h-1v-1h-1v2h-2v1h-1v-3h1v1h1v-2h1v-1h-1v-1h1zM14 6h1v1h-1zM9 7h1v2h-1zM11 7h1v1h1v-1h1v2h-2v1h-2v-1h1zM15 7h1v1h-1zM1 9h1v2h1v-2h2v1h-1v1h1v1h1v1h2v1h-1v1h-1v-1h-2v-2h-1v2h-1v2h-1zM6 9h3v1h-3zM20 9h1v1h1v1h-3v-1h1zM23 9h1v1h2v-1h1v2h-1v2h-3v-1h1v-1h-1zM28 9h2v2h-1v-1h-1zM5 10h1v1h-1zM6 11h3v1h-3zM11 11h1v1h2v2h-1v1h-1v-2h-1zM17 11h2v1h-1v1h-1zM22 11h1v1h-1zM28 11h1v1h1v1h-2zM20 12h2v1h-1v2h2v1h-3v1h2v2h-1v-1h-2v-3h1zM9 13h2v1h-2zM15 13h2v1h-1v1h-1zM18 13h1v2h-1v5h-2v2h-3v1h-2v-5h1v1h1v-1h-1v-1h-2v3h-1v-2h-2v-1h2v-1h5v3h1v-3h1v1h1v-1h-1v-1h1v-1h1zM27 13h1v2h-1zM3 14h1v1h2v1h-3zM23 14h1v1h-1zM29 14h1v2h-2v-1h1zM7 15h2v1h-2zM14 15h1v1h-1zM24 15h1v1h1v2h-1v1h-1v-2h-1v-1h1zM1 17h5v1h-3v1h-1v-1h-1zM28 17h1v2h-1zM16 18v1h1v-1zM26 18h1v1h-1zM1 19h1v1h-1zM5 19h3v1h-1v1h-1v1h-4v-1h2v-1h1zM22 19h1v1h-1zM25 19h1v1h-1zM8 20h1v1h-1zM12 20v1h1v-1zM18 20h2v1h-1v1h-1v1h-1v2h-3v-1h1v-1h1v-1h1v-1h1zM21 20h1v1h4v-1h2v1h1v1h1v1h-1v1h-3v2h1v1h1v1h-1v1h-3v-2h1v1h1v-1h-1v-1h-2v1h-5v-2h1v1h2v-1h-1v-2h1v-1h-1v-1h1zM29 20h1v1h-1zM7 21h1v1h-1zM9 22h1v1h1v1h-1v1h-1zM19 22h1v1h-1zM22 22v3h3v-3zM26 22v1h1v-1zM1 23h7v7h-7zM13 23h1v1h-1zM18 23h1v1h-1zM23 23h1v1h-1zM2 24v5h5v-5zM11 24h2v2h-1v-1h-1zM3 25h3v3h-3zM10 25h1v1h1v1h1v-1h2v1h-1v2h-2v1h-3v-1h1v-1h1v-1h-1v1h-1v-2h1zM27 25h1v1h-1zM29 25h1v1h-1zM28 26h1v1h-1zM15 27h1v2h-1zM17 27h1v1h-1zM29 27h1v1h-1zM21 28h1v2h-3v-1h2zM28 28h1v2h-1zM17 29h1v1h-1z"/></svg>