<svg xmlns="http://www.w3.org/2000/svg" viewBox="0 0 31 31"><path d="M1 1h7v7h-7zM9 1h3v1h-2v1h-1zM13 1h4v1h-2v1h-1v-1h-1zM19 1h2v1h-2zM23 1h7v7h-7zM2 2v5h5v-5zM17 2h2v1h-1v1h-1zM21 2h1v1h-1zM24 2v5h5v-5zM3 3h3v3h-3zM11 3h2v1h1v1h-1v1h-1v-1h-3v-1h2zM20 3h1v1h-1zM25 3h3v3h-3zM15 4h2v1h-1v1h-1zM18 4h2v1h-1v1h-1v2h1v1h1v1h-2v-1h-1v2h-2v1h-1v-3h1v1h1v-2h1v-1h-1v-1h1v-1h1zM20 5h2v1h-1v1h-1zM10 6h2v2h-1v-1h-1zM13 6h2v1h-1v1h-1zM9 7h1v2h-1zM15 7h1v1h-1zM19 7h1v1h-1zM21 7h1v1h-1zM20 8h1v1h-1zM1 9h1v1h-1zM3 9h2v1h1v4h-1v-1h-1v-1h1v-1h-1v1h-2v-2h1zM6 9h3v2h-1v-1h-2zM10 9h2v1h-2zM23 9h1v2h-2v-1h1zM26 9h1v1h-1zM28 9h2v2h-1v1h-3v-1h2zM12 10h1v1h-1zM20 10h1v1h-1zM25 10h1v1h-1zM7 11h1v1h-1zM10 11h2v1h1v3h-1v1h1v1h-1v1h1v1h-2v-2h-1v-2h1v-1h-1v-1h-1v-1h1zM17 11h2v1h-1v1h-1zM21 11h1v1h-1zM1 12h1v1h-1zM19 12h2v1h-2zM23 12h2v1h-2zM29 12h1v1h-1zM2 13h2v1h-1v1h1v1h-1v1h-2v-2h1zM7 13h2v1h1v1h-2v-1h-1zM15 13h2v1h-1v1h-1zM18 13h1v1h5v1h2v1h1v1h-1v1h-1v-1h-1v-1h-1v-1h-1v2h1v2h-1v1h-1v-4h-3v4h-2v2h-2v-1h-1v-1h1v-1h1v-3h1v1h1v-1h-1v-1h1v-1h1zM26 13h2v2h1v-1h1v3h-1v-1h-2v-2h-1zM6 14h1v1h1v1h-2zM14 15h1v1h-1zM4 16h1v1h-1zM8 16h1v1h-1zM7 17h1v1h-1zM9 17h1v2h1v1h1v1h-3v1h-5v-1h-1v-2h1v1h2v-1h3zM19 17h1v1h-1zM4 18h2v1h-2zM16 18v1h1v-1zM24 18h1v1h1v1h-1v1h1v2h2v-1h1v-1h1v2h-1v1h-3v1h2v1h1v1h-1v1h-1v-1h-2v-1h-2v1h-2v1h1v1h1v1h-4v-1h1v-1h-2v-3h1v1h2v-2h-1v-2h-2v1h-1v2h-3v-1h1v-1h1v-1h1v-1h1v-1h3v1h1v-1h2zM28 18h1v1h-1zM1 19h1v1h-1zM7 20v1h1v-1zM26 20h3v1h-1v1h-1v-1h-1zM2 21h1v1h-1zM12 21h1v1h1v1h-1v1h-1v1h1v1h-3v-1h1v-3h1zM9 22h1v3h-1zM22 22v3h3v-3zM1 23h7v7h-7zM18 23h1v1h-1zM23 23h1v1h-1zM2 24v5h5v-5zM19 24h1v1h-1zM3 25h3v3h-3zM29 25h1v1h-1zM9 26h1v1h4v1h-3v1h-1v-1h-1zM14 26h1v1h-1zM15 27h1v1h-1zM24 27h1v1h2v1h-3zM29 27h1v1h-1zM14 28h1v1h-1zM16 28h2v1h-2zM28 28h1v2h-1zM9 29h1v1h-1zM11 29h1v1h-1zM13 29h1v1h-1zM15 29h1v1h-1z"/></svg>