<svg xmlns="http://www.w3.org/2000/svg" viewBox="0 0 23 23"><path d="M1 1h7v7h-7zM10 1h2v1h-2zM13 1h1v1h-1zM15 1h7v7h-7zM2 2v5h5v-5zM12 2h1v1h1v3h-1v-1h-1v1h1v1h-1v2h-1v-2h-1v2h-1v-6h2v1h1zM16 2v5h5v-5zM3 3h3v3h-3zM17 3h3v3h-3zM10 5v1h1v-1zM13 7h1v1h-1zM1 9h1v1h-1zM3 9h5v1h-2v1h2v-1h1v1h2v1h2v-1h-1v-2h1v1h2v-1h5v1h-1v1h-1v-1h-2v1h1v1h-1v1h-2v2h-1v-2h-2v1h1v1h-1v1h-1v-1h-1v-1h-2v-1h3v-1h-3v1h-2v1h-1v-2h-1v1h-1v-3h1zM4 10v1h1v-1zM21 10h1v1h-1zM14 11v1h1v-1zM20 11h1v3h1v1h-1v1h1v1h-2v1h-1v-2h-1v2h-1v-1h-1v-1h1v-1h2v-1h1v-1h-2v-1h2zM1 13h1v1h-1zM16 13h1v2h-1zM1 15h7v7h-7zM12 15h1v1h-1zM14 15h1v1h-1zM2 16v5h5v-5zM9 16h1v1h1v-1h1v1h1v1h1v-1h1v1h1v1h1v1h-1v1h-2v1h-1v-1h-3v-1h-1zM3 17h3v3h-3zM10 18v1h2v1h1v-1h-1v-1zM18 18h1v1h-1zM14 19v1h1v-1zM18 20h1v1h-1zM9 21h1v1h-1zM16 21h1v1h-1zM19 21h2v1h-2z"/></svg>