<svg xmlns="http://www.w3.org/2000/svg" viewBox="0 0 23 23"><path d="M1 1h7v7h-7zM11 1h3v1h-1v1h-1v-1h-1zM15 1h7v7h-7zM2 2v5h5v-5zM10 2h1v1h1v1h-2v4h1v-2h1v2h1v-2h-1v-2h2v7h-1v-2h-2v1h-1v-1h-1v-6h1zM16 2v5h5v-5zM3 3h3v3h-3zM17 3h3v3h-3zM1 9h1v2h-1zM3 9h5v1h-5zM15 9h5v1h2v1h-1v1h-1v1h-2v1h-1v-1h-1v-1h1v-1h1v-1h-1v1h-1v-1h-1zM9 10h1v3h-1zM11 10h1v1h-1zM3 11h1v1h-1zM6 11h2v1h-1v1h-2v1h-2v-1h1v-1h2zM12 11h1v1h-1zM14 11h1v1h-1zM11 12h1v1h1v1h1v-1h1v1h1v1h1v1h-1v1h-2v2h-1v-2h-1v-1h1v-1h-1v1h-1v-1h-2v-1h1v-1h1zM21 12h1v3h-1v-1h-1v-1h1zM1 13h1v1h-1zM7 13h1v1h-1zM18 14h2v1h1v1h-1v1h1v1h-2v-2h-1zM1 15h7v7h-7zM14 15v1h1v-1zM2 16v5h5v-5zM9 16h2v1h1v1h-2v2h-1zM3 17h3v3h-3zM16 17h1v2h-1zM12 19h1v1h-1zM14 19h1v1h-1zM17 19h1v3h-1v-1h-1v-1h1zM19 20h1v1h1v1h-2zM9 21h4v1h-4zM14 21h1v1h-1z"/></svg>