<svg xmlns="http://www.w3.org/2000/svg" viewBox="0 0 39 39"><path d="M1 1h7v7h-7zM9 1h3v1h-2v2h-1zM13 1h1v1h-1zM15 1h4v2h-1v-1h-3zM20 1h1v3h1v-2h2v1h-1v2h1v1h1v1h-1v2h-1v-3h-1v-1h-2v-1h-1v-1h1zM29 1h1v1h-1zM31 1h7v7h-7zM2 2v5h5v-5zM32 2v5h5v-5zM3 3h3v3h-3zM12 3h3v1h-3zM24 3h5v1h-2v1h-1v1h-1v-1h-1zM33 3h3v3h-3zM11 4h1v1h-1zM15 4h2v1h1v-1h1v1h1v3h-1v-2h-1v3h1v1h-3v-1h1v-2h-1v-2h-1zM29 4h1v4h-1zM9 5h1v1h-1zM12 5h1v1h1v2h-1v-1h-1zM10 6h1v1h-1zM21 6h1v3h1v1h-2v1h-1v-3h1zM26 6h1v1h-1zM9 7h1v1h-1zM11 7h1v1h1v1h-2v1h-1v1h-1v-1h-3v2h1v1h-2v-1h-1v-1h1v-1h-1v-1h6v-1h1zM15 7h1v2h-1zM25 7h1v1h-1zM27 7h1v1h-1zM26 8h1v1h4v2h-1v-1h-1v1h1v1h-2v-1h-1v-1h-2v1h1v1h-1v1h1v1h-1v1h-2v1h-6v1h1v2h-1v-1h-1v-1h-1v-1h-1v-2h3v-1h1v-2h1v3h-1v1h1v-1h1v1h2v-1h2v-1h-1v-1h-1v1h-2v-1h1v-1h2v-1h1v-1h2zM1 9h1v1h-1zM13 9h2v1h-2zM33 9h1v1h1v1h-1v1h-1v-1h-1v-1h1zM35 9h3v1h-1v1h-1v-1h-1zM2 10h1v1h-1zM15 10h1v1h-1zM7 11h2v1h-2zM11 11h4v1h-4zM37 11h1v3h-1v-1h-3v-1h3zM2 12h2v2h-1v1h-2v-1h1zM10 12h1v1h-1zM15 12h2v1h-2zM32 12h1v2h-2v-1h1zM7 13h1v1h-1zM9 13h1v1h-1zM12 13h1v1h-1zM4 14h1v2h-2v-1h1zM10 14h1v1h-1zM26 14h5v1h-2v1h2v-1h1v1h1v1h-1v1h-2v1h-1v1h-2v1h-1v1h-1v2h-1v1h-1v-1h-1v-1h-2v-1h1v-2h1v2h2v-1h1v-1h-2v-3h1v1h1v1h1v-2h1v1h1v-1h-1v-1h1v-1h-2zM33 14h2v1h3v3h-3v-1h-1v-1h-1zM7 15h1v1h-1zM12 15h1v1h1v1h1v3h-1v-1h-3v-1h1zM2 16h1v1h-1zM6 16h1v1h2v1h-4v-1h1zM9 16h2v1h-2zM24 16h1v1h-1zM36 16v1h1v-1zM3 17h1v1h-1zM21 17h1v2h-1v1h-1v-1h-1v-1h2zM33 17h1v1h-1zM4 18h1v1h-1zM32 18h1v1h-1zM2 19h2v1h1v-1h1v1h1v1h1v1h-1v1h3v1h-1v1h-1v-1h-2v1h-1v1h-3v-3h1v2h1v-1h1v-1h1v-2h-2v1h1v1h-2v-1h-1v-1h1v-1h-1zM7 19h4v2h2v1h-2v1h-1v-2h-1v-1h-2zM16 19h1v1h-1zM18 19h1v1h-1zM30 19h2v1h1v1h1v-1h-1v-1h2v3h-1v1h-1v-1h-3v-1h1v-1h-1zM37 19h1v2h-1zM1 20h1v1h-1zM13 20h1v1h-1zM14 21h3v3h-1v-2h-1v1h-1zM27 21h1v1h1v3h-1v-2h-1zM35 22h3v4h-1v-1h-5v-1h-1v-1h2v1h1v-1h1v1h2v-1h-2zM11 23h1v1h-1zM13 23h1v2h-2v-1h1zM18 24h1v1h1v1h1v1h3v1h-3v1h1v1h-1v2h-1v-3h-1v-1h-2v-2h-2v-1h3zM20 24h2v2h-1v-1h-1zM25 24h1v1h-1zM7 25h1v1h-1zM11 25h1v2h1v2h-2v-1h-1v-1h1zM24 25h1v1h2v1h-3zM29 25h3v1h-1v1h1v1h2v-1h1v1h1v-1h2v1h-1v1h-1v2h-1v-2h-1v5h-2v1h-1v1h-2v-1h1v-1h-3v-1h2v-3h-1v-1h-1v-2h1v-1h1zM1 26h1v1h1v1h-1v2h-1zM5 26h2v1h-1v2h-1v1h-2v-1h1v-2h1zM8 26h2v1h-1v1h-2v-1h1zM14 26h1v1h-1zM18 26v1h1v-1zM32 26h2v1h-2zM35 26h1v1h-1zM29 27v1h1v-1zM9 28h1v1h1v1h-1v3h1v3h-1v-1h-1v-5h-2v-1h2zM14 28h3v1h-2v1h-1v1h-1v-2h1zM24 28h2v1h1v1h-3v1h2v1h-1v2h-2v-3h-1v-1h1v-1h1zM17 29h1v1h-1zM27 30h1v2h-1zM30 30v3h3v-3zM1 31h7v7h-7zM11 31h2v1h1v3h-1v-1h-1v-1h-1zM14 31h4v1h2v1h-3v-1h-1v1h-1v-1h-1zM31 31h1v1h-1zM37 31h1v7h-1v-1h-2v1h-1v-1h-1v-2h2v-1h1v2h1v-2h-1v-2h1zM2 32v5h5v-5zM21 32h1v1h-1zM26 32h1v1h-1zM3 33h3v3h-3zM16 33h1v1h-1zM15 34h1v1h1v-1h3v2h1v1h1v1h-3v-1h-2v-1h-1v1h1v1h-2v-2h-1v-1h1zM26 34h1v1h-1zM12 35h1v1h-1zM18 35v1h1v-1zM24 35h2v3h-1v-1h-1zM27 35h1v1h1v1h-1v1h-1zM9 37h1v1h-1zM13 37h1v1h-1zM29 37h1v1h-1zM32 37h1v1h-1z"/></svg>